<svg width="70" height="50" viewBox="0 0 70 50" fill="none" xmlns="http://www.w3.org/2000/svg">
<rect width="70" height="50" rx="4" fill="#0060AF"/>
<path fill-rule="evenodd" clip-rule="evenodd" d="M14.3978 29.792C14.3978 29.121 14.4055 27.3274 14.3879 27.1064C14.4032 24.4374 12.3446 22.5546 11.0441 22.7014C10.1442 22.775 9.38982 23.1209 8.98502 24.116C8.60953 25.0434 8.94525 26.277 10.1931 26.5665C11.5273 26.8773 12.3066 27.136 12.8705 27.5008C13.5614 27.9475 14.1255 28.801 14.1405 29.7931" fill="white"/>
<path fill-rule="evenodd" clip-rule="evenodd" d="M13.8399 29.7921C13.8443 28.9319 13.335 28.1713 12.6693 27.7625C12.0789 27.4013 11.2862 27.164 10.0074 26.8582C9.6121 26.7629 9.19861 26.5511 9.0706 26.2812C8.73198 26.6029 8.67047 27.326 8.73005 27.7487C8.79928 28.2376 9.40551 29.0436 10.3183 29.0752C10.8758 29.0963 11.5805 28.9621 11.9185 28.8944C12.5015 28.7757 13.424 29.1199 13.5709 29.791" fill="white"/>
<path fill-rule="evenodd" clip-rule="evenodd" d="M14.8692 18.541C13.3214 18.541 11.9846 19.5032 11.9893 21.1681C11.9941 22.5682 13.1885 23.3177 13.6149 23.8531C14.259 24.6598 14.6076 25.6147 14.6436 27.0758C14.672 28.2386 14.6705 29.3869 14.6768 29.7938H15.0183C15.0125 29.368 14.9971 28.1491 15.0146 27.0398C15.0378 25.5783 15.399 24.6598 16.0434 23.8531C16.4734 23.3177 17.6667 22.5682 17.6693 21.1681C17.6753 19.5032 16.339 18.541 14.7927 18.541" fill="white"/>
<path fill-rule="evenodd" clip-rule="evenodd" d="M15.2616 29.792C15.2616 29.121 15.2536 27.3274 15.2708 27.1064C15.2557 24.4374 17.313 22.5546 18.6147 22.7014C19.5146 22.775 20.268 23.1209 20.6741 24.116C21.0491 25.0434 20.7116 26.277 19.4653 26.5665C18.1302 26.8773 17.352 27.136 16.7866 27.5008C16.0965 27.9475 15.5719 28.801 15.5558 29.7931" fill="white"/>
<path fill-rule="evenodd" clip-rule="evenodd" d="M15.8194 29.7921C15.8145 28.9319 16.3237 28.1713 16.9874 27.7625C17.5804 27.4013 18.3739 27.164 19.6516 26.8582C20.0477 26.7629 20.4607 26.5511 20.5864 26.2812C20.9267 26.6029 20.9882 27.326 20.9284 27.7487C20.8579 28.2376 20.2531 29.0436 19.3419 29.0752C18.7848 29.0963 18.0762 28.9621 17.7397 28.8944C17.1589 28.7757 16.2338 29.1199 16.0863 29.791" fill="white"/>
<path fill-rule="evenodd" clip-rule="evenodd" d="M16.2965 32.5701L16.0986 31.2078L16.5767 31.1395C16.6929 31.1246 16.8346 31.1437 16.8913 31.2124C16.954 31.2841 16.9731 31.3435 16.9852 31.4376C17.0034 31.5542 16.9676 31.6887 16.8285 31.7557V31.7598C16.9837 31.7598 17.0776 31.865 17.105 32.0426C17.1089 32.0803 17.1208 32.1707 17.1089 32.2463C17.0773 32.4262 16.9636 32.4842 16.7714 32.5095L16.2965 32.5701ZM16.6042 32.3263C16.6609 32.3186 16.7184 32.3157 16.7633 32.2887C16.8322 32.2463 16.8259 32.1559 16.8163 32.0885C16.7925 31.9408 16.7516 31.8845 16.5852 31.9077L16.4806 31.9229L16.5469 32.3337L16.6042 32.3263ZM16.5042 31.6967C16.5675 31.6871 16.6532 31.6799 16.6889 31.6232C16.7078 31.5854 16.7316 31.5554 16.7158 31.4713C16.6963 31.3717 16.6614 31.3098 16.5269 31.3338L16.4018 31.3528L16.4513 31.7019L16.5042 31.6967Z" fill="white"/>
<path fill-rule="evenodd" clip-rule="evenodd" d="M18.3675 31.7505C18.3712 31.7759 18.3756 31.8041 18.3772 31.8294C18.4158 32.0778 18.3675 32.2836 18.0713 32.3402C17.6331 32.4196 17.5492 32.1632 17.4723 31.8041L17.4312 31.6097C17.3708 31.2662 17.3449 31.006 17.7719 30.9257C18.0127 30.8844 18.1717 30.9747 18.2379 31.2006C18.2482 31.2343 18.2611 31.2675 18.2659 31.3015L18.004 31.3525C17.9737 31.2675 17.9336 31.1159 17.8157 31.1287C17.6042 31.1528 17.674 31.4008 17.6958 31.5046L17.7745 31.8776C17.7982 31.9903 17.8452 32.1705 18.0283 32.1358C18.1769 32.1077 18.112 31.8894 18.0988 31.7998" fill="white"/>
<path fill-rule="evenodd" clip-rule="evenodd" d="M18.7878 32.1614L18.6973 30.7516L19.0491 30.6504L19.787 31.8765L19.5099 31.9547L19.3351 31.6431L19.0274 31.7302L19.0671 32.0845L18.7878 32.1614ZM19.0016 31.5025L19.224 31.4418L18.9286 30.8714L19.0016 31.5025Z" fill="white"/>
<path fill-rule="evenodd" clip-rule="evenodd" d="M10.0943 31.0961C10.2044 30.7638 10.303 30.519 10.7234 30.6277C10.9483 30.687 11.0878 30.7804 11.0812 31.0267C11.08 31.0815 11.0609 31.1375 11.0483 31.1916L10.7867 31.1236C10.821 30.9874 10.8427 30.8795 10.6649 30.8279C10.4595 30.7748 10.4094 31.0097 10.3811 31.1111L10.2746 31.4806C10.2408 31.5903 10.2002 31.7717 10.3811 31.8186C10.5305 31.8564 10.621 31.7183 10.6751 31.5164L10.4922 31.4705L10.5554 31.2568L10.9858 31.3872L10.7815 32.0995L10.5835 32.0489L10.6281 31.8983H10.6224C10.5311 32.0215 10.42 32.0344 10.3226 32.0167C9.89222 31.9071 9.93714 31.6419 10.0399 31.2876" fill="white"/>
<path fill-rule="evenodd" clip-rule="evenodd" d="M11.6958 31.6982L11.5662 32.2778L11.2744 32.2184L11.5853 30.8652L12.0827 30.971C12.3738 31.0304 12.4618 31.1524 12.4205 31.4041C12.397 31.5484 12.3215 31.7039 12.1371 31.6913L12.1352 31.689C12.2911 31.7403 12.3043 31.8145 12.2771 31.9425C12.2653 31.9971 12.1843 32.3277 12.2402 32.3811L12.2421 32.4218L11.9402 32.3474C11.9277 32.2559 11.9705 32.0911 11.9874 31.9997C12.0043 31.9189 12.0315 31.8051 11.9446 31.7624C11.8766 31.7281 11.8512 31.7298 11.7742 31.7133L11.6958 31.6982ZM11.7455 31.4886L11.942 31.5386C12.0613 31.5549 12.1276 31.4967 12.1512 31.3607C12.1724 31.236 12.1449 31.1875 12.0378 31.1633L11.8272 31.123L11.7455 31.4886Z" fill="white"/>
<path fill-rule="evenodd" clip-rule="evenodd" d="M13.567 31.1675L13.8555 31.1991L13.7312 32.1505C13.6708 32.4521 13.5472 32.5839 13.1952 32.5427C12.8371 32.4999 12.7521 32.3463 12.7736 32.0423L12.8989 31.0918L13.1897 31.1231L13.0649 32.0523C13.0515 32.1532 13.0269 32.3027 13.2172 32.321C13.3861 32.3331 13.4245 32.2275 13.4436 32.0963" fill="white"/>
<path fill-rule="evenodd" clip-rule="evenodd" d="M14.1738 32.5947L14.2608 31.2344L14.815 31.257C15.0771 31.2693 15.1456 31.4709 15.1375 31.6633C15.1298 31.7803 15.0911 31.911 14.9829 31.9819C14.8942 32.0422 14.7801 32.0564 14.6744 32.0516L14.4938 32.0422L14.4577 32.6123L14.1738 32.5947ZM14.5018 31.8347L14.6487 31.8424C14.768 31.8465 14.847 31.8021 14.8573 31.6369C14.8633 31.4784 14.7995 31.4514 14.645 31.4451L14.5287 31.4413L14.5018 31.8347Z" fill="white"/>
<path fill-rule="evenodd" clip-rule="evenodd" d="M53.274 19.8549L51.0706 23.625C50.239 22.9882 49.2236 22.5198 47.9279 22.5198C44.8617 22.5198 43.616 24.6743 43.616 26.192C43.616 27.3187 44.3986 28.9807 47.1268 28.9807C48.2722 28.9807 49.9 28.2299 50.3686 27.888L48.1896 32.2619C47.1508 32.4572 46.8095 32.5784 45.9303 32.604C41.047 32.7414 39.0739 29.9135 39.0752 27.0241C39.0786 23.2041 42.6812 18.5585 48.6538 18.5585C49.0196 18.5585 49.4672 18.678 49.85 18.8102L50.2369 18.3438" fill="white"/>
<path fill-rule="evenodd" clip-rule="evenodd" d="M62.365 18.4629L62.9889 32.1647H58.3455L58.3429 29.8149H55.1765L54.1346 32.1647H49.0986L54.3636 22.3805L53.1764 22.3732L55.4319 18.4629H62.365ZM58.3127 22.6546L56.5226 26.64H58.3668L58.3127 22.6546Z" fill="white"/>
<path fill-rule="evenodd" clip-rule="evenodd" d="M36.1434 18.4624C38.4429 18.4746 39.7423 19.6512 39.7423 21.3508C39.7423 22.9178 38.3719 24.3047 36.8675 25.0218C38.4164 25.5587 38.5503 26.8762 38.5503 27.8082C38.5503 30.0602 36.1534 32.1643 33.0376 32.1643H26.2422L28.8928 22.5163L27.8041 22.5104L30.0298 18.4624C30.0298 18.4624 34.2736 18.4503 36.1434 18.4624ZM33.8874 24.0178C34.3631 24.0178 35.2029 23.9042 35.4129 23.0365C35.643 22.0944 34.8548 22.069 34.4768 22.069L33.1258 22.0635L32.6547 24.0178H33.8874ZM31.9774 26.4391L31.3554 28.691H32.9463C33.572 28.691 34.4249 28.398 34.6339 27.6652C34.8403 26.9304 34.2441 26.4391 33.6206 26.4391H31.9774Z" fill="white"/>
<path fill-rule="evenodd" clip-rule="evenodd" d="M14.93 33.8482C12.5771 33.8482 10.1592 33.302 7.74446 32.2216L7.6852 32.1941L7.65686 32.1372C6.57322 29.9809 6 27.6226 6 25.3152C6 23.011 6.54971 20.7535 7.634 18.6002L7.66395 18.5429L7.72433 18.5144C9.95812 17.5169 12.361 17.0117 14.8688 17.0117C17.2047 17.0117 19.6996 17.5741 22.0824 18.6411L22.1434 18.6668L22.1717 18.7251C23.276 20.9211 23.8584 23.279 23.8584 25.5483C23.8584 27.8085 23.2992 30.0682 22.1935 32.2628L22.1645 32.3204L22.103 32.3471C19.9032 33.3287 17.4227 33.8482 14.93 33.8482ZM7.96795 31.9259C10.3136 32.9662 12.6534 33.4914 14.93 33.4914C17.344 33.4914 19.7446 32.994 21.8817 32.0511C22.9433 29.9244 23.4814 27.7357 23.4814 25.5483C23.4814 23.3518 22.9198 21.0673 21.8574 18.9358C19.5451 17.911 17.1301 17.3677 14.8688 17.3677C12.441 17.3677 10.1138 17.8531 7.94766 18.8108C6.90781 20.8979 6.37855 23.085 6.37855 25.3152C6.37855 27.5493 6.92842 29.8349 7.96795 31.9259Z" fill="white"/>
</svg>
