<svg width="70" height="50" viewBox="0 0 70 50" fill="none" xmlns="http://www.w3.org/2000/svg">
<rect width="70" height="50" rx="4" fill="white"/>
<path fill-rule="evenodd" clip-rule="evenodd" d="M11.352 29.6908L13.7277 32.6326H7.84608L11.352 29.6908ZM10.605 28.782L6.00415 32.6416L6.00226 23.1494L10.605 28.782ZM21.6751 19.224C21.6751 19.224 20.6651 18.7459 19.4917 18.8157C18.1502 18.8947 17.028 19.4092 16.3828 20.088C15.9769 20.5145 15.5281 21.0347 15.3026 21.5997C14.9757 22.4171 14.9059 23.4971 14.9059 23.4971C14.9059 23.4971 14.4368 23.0989 13.849 21.9386C13.1655 20.589 12.9785 19.7714 12.8859 18.8387C12.8035 18.0202 12.9329 17.2109 12.9329 17.2109H21.6751V19.224ZM21.6751 21.915V27.9001C21.6751 27.9001 21.1316 28.1088 20.6883 28.1088C20.245 28.1088 19.49 28.0431 18.6132 27.5611C17.7428 27.0829 17.261 26.5044 16.8875 25.9802C16.5087 25.4471 16.1959 24.708 16.1029 24.1754C16.0282 23.7493 15.9476 22.6865 16.3828 21.8227C16.619 21.3539 17.2529 20.5504 18.4732 20.5047C19.4679 20.4665 20.0195 20.7281 20.5251 21.0055C21.4872 21.5346 21.6751 21.915 21.6751 21.915ZM12.1559 27.4798L13.7327 26.1654C13.2302 25.5235 13.0974 25.2816 12.5356 24.4528C11.9604 23.6045 11.4786 22.6713 11.0666 21.5763C10.6207 20.3901 10.513 19.7242 10.5622 18.8387C10.6239 17.7121 10.8801 17.2109 10.8801 17.2109H6L6.00226 19.8411C6.00226 19.8411 9.73781 24.5224 12.1559 27.4798ZM16.6615 32.6283H21.6751V28.9726C21.6751 28.9726 20.4315 29.5431 19.6232 29.5891C19.142 29.6172 18.6749 29.6357 17.9212 29.4352C17.0835 29.2126 16.6075 28.9956 15.831 28.3552C15.2074 27.8415 14.4943 27.0829 14.4943 27.0829L12.9082 28.4054C13.6441 29.3055 14.1876 29.9607 14.354 30.1371C15.0693 30.893 15.3724 31.1708 15.8542 31.4402C16.3359 31.7102 17.945 31.6956 17.945 31.6956L16.6615 32.6283Z" fill="#E94E0F"/>
<path fill-rule="evenodd" clip-rule="evenodd" d="M59.5927 29.3766C59.5927 30.4358 59.7355 32.1769 58.5493 32.6007V32.6713H63.0545V32.6007C61.8691 32.1537 62.0113 30.4358 62.0113 29.3766V20.5052C62.0113 19.4466 61.8691 17.7051 63.0545 17.2581V17.1875H58.5493V17.2581C59.7587 17.7051 59.5927 19.423 59.5927 20.5052V29.3766ZM43.0729 20.5052L51.2063 30.7417C52.2493 32.0827 52.9849 32.8596 54.6683 33.4241V20.2229C54.6683 18.9053 54.6683 17.9639 55.9017 17.2581V17.1875H51.7279V17.2581C52.9849 17.9639 52.9607 18.9053 52.9607 20.2229V29.1414L44.2825 18.2698L43.9501 17.7991C43.7845 17.611 43.6898 17.4934 43.5949 17.2111V17.1875H40.1323V17.2581C41.3655 17.9639 41.3655 18.9053 41.3655 20.2229V29.6125C41.3655 30.9299 41.3655 31.871 40.1091 32.6007V32.6713H44.3063V32.6007C43.0493 31.871 43.0729 30.9299 43.0729 29.6125V20.5052ZM29.8151 23.4235V18.8114L31.4035 18.6462C32.8265 18.5051 34.3437 19.3524 34.3437 20.9763C34.3437 22.9058 32.1385 23.4235 30.5976 23.4235H29.8151ZM29.8151 30.7887V24.9762L31.4746 24.8822C33.5614 24.7645 35.7903 25.7531 35.7903 28.0356C35.7903 30.2711 33.8227 31.1652 31.8778 30.977L29.8151 30.7887ZM27.3961 29.3532C27.3961 30.4358 27.5385 32.1537 26.3525 32.6007V32.6713H30.2652C32.0436 32.6713 33.9174 32.7421 35.5769 31.9419C37.1657 31.1888 38.4226 29.6355 38.4226 27.8235C38.4226 25.5178 36.6912 24.1057 34.5571 23.6582C35.9089 23.0702 36.9282 22.1761 36.9282 20.5994C36.9282 18.5051 35.1028 17.1875 31.973 17.1875H26.3525V17.2581C27.5625 17.7051 27.3961 19.423 27.3961 20.4817V29.3532Z" fill="#005B6A"/>
</svg>
