<svg width="70" height="50" viewBox="0 0 70 50" fill="none" xmlns="http://www.w3.org/2000/svg">
<rect width="70" height="50" rx="4" fill="white"/>
<path fill-rule="evenodd" clip-rule="evenodd" d="M11.2866 19.1466C11.9505 19.0384 12.6316 19.051 13.2986 19.1176C13.917 19.2454 14.5409 19.388 15.1084 19.6741C16.2566 20.2219 17.234 21.11 17.8853 22.2034C18.4253 23.2137 18.7968 24.347 18.7412 25.5047C18.7569 27.8811 17.2512 30.1454 15.1185 31.1557C13.736 31.8133 12.1276 31.9035 10.6502 31.5429C9.65087 31.2357 8.68682 30.7388 7.95868 29.9754C7.26503 29.3319 6.74147 28.512 6.40914 27.6295C5.97571 26.5439 5.93652 25.3369 6.12071 24.1934C6.45774 22.4949 7.50722 20.9375 8.99249 20.0346C9.68379 19.5792 10.4785 19.3088 11.2866 19.1466ZM10.3994 22.1963C9.89933 22.2472 9.35303 22.4228 9.07636 22.8743C8.77069 23.3067 8.7388 23.8475 8.7085 24.3614C8.70602 24.4036 8.70354 24.4456 8.70092 24.4873C8.69469 24.6169 8.68312 24.7463 8.67155 24.8758L8.67155 24.8758C8.6482 25.137 8.62484 25.3983 8.64528 25.6614C8.66051 25.8391 8.67126 26.0173 8.68201 26.1955V26.1955C8.70888 26.6409 8.73576 27.0865 8.8326 27.5237C8.95252 28.0747 9.44865 28.5018 9.99574 28.6022C11.0153 28.786 12.054 28.7698 13.0865 28.7538C13.181 28.7523 13.2755 28.7508 13.3699 28.7495C13.7924 28.726 14.2148 28.6829 14.6326 28.6163C15.2581 28.5348 15.8106 28.0253 15.9133 27.3983C16.0928 26.6294 16.1249 25.8362 16.0716 25.0516C15.9713 24.5484 15.6155 24.0946 15.1319 23.9104C14.914 23.8052 14.6723 23.8058 14.4353 23.8064C14.3935 23.8066 14.3518 23.8067 14.3105 23.8062C13.8442 23.8068 13.3779 23.8065 12.9117 23.8062H12.9116C12.0957 23.8058 11.2799 23.8053 10.4644 23.8093C10.3707 23.811 10.2832 23.779 10.1965 23.7472C10.1643 23.7354 10.1322 23.7237 10.1 23.7137C10.0976 23.5381 10.1039 23.2756 10.3398 23.2709C10.9541 23.257 11.569 23.2611 12.1838 23.2652H12.1839C12.9936 23.2706 13.8033 23.2759 14.6114 23.2403C14.5237 22.8327 14.2752 22.4071 13.8472 22.2943C13.4608 22.1908 13.0611 22.1383 12.6637 22.1015C12.5504 22.1001 12.4369 22.0979 12.3233 22.0957H12.3233C11.6795 22.0834 11.0329 22.0711 10.3994 22.1963ZM14.776 25.6199C14.5699 25.5642 14.323 25.6457 14.2509 25.8581C14.2056 26.1027 14.2782 26.3382 14.3502 26.5723C14.3805 26.6706 14.4106 26.7686 14.432 26.8669C14.4555 26.8806 14.4907 26.9009 14.5259 26.9213C14.5612 26.9417 14.5965 26.9621 14.6201 26.9758C14.7008 26.9288 14.7831 26.8865 14.8685 26.8496C14.8777 26.6428 14.9276 26.4438 14.9774 26.245C14.9995 26.1567 15.0216 26.0685 15.0402 25.9796C15.0018 25.8331 14.9054 25.699 14.776 25.6199Z" fill="#01ACD7"/>
<path fill-rule="evenodd" clip-rule="evenodd" d="M26.7941 21.0995C26.1898 20.8628 25.5189 20.8895 24.8856 20.9678C23.5155 21.1795 22.3132 22.225 21.9072 23.5504C21.723 24.0755 21.7269 24.6422 21.7755 25.1901C21.9393 26.5915 22.9935 27.822 24.3314 28.2508C25.2798 28.5376 26.374 28.547 27.2495 28.0337C27.3638 27.9704 27.4677 27.8923 27.5715 27.8141L27.5715 27.8141L27.5715 27.8141L27.5715 27.8141L27.5716 27.8141C27.6685 27.7411 27.7655 27.6682 27.871 27.6073L27.8726 27.6801C27.8856 28.2578 27.9003 28.9111 27.4619 29.3473C27.168 29.7062 26.7236 29.8951 26.2744 29.9641C25.3033 30.142 24.2766 29.8105 23.5547 29.1458C23.3942 29.3093 23.2261 29.4655 23.058 29.6216C22.786 29.8742 22.5141 30.1267 22.2748 30.4101C23.0304 31.1249 23.9874 31.6406 25.0251 31.7778C26.0393 31.9055 27.1303 31.8436 28.034 31.3224C28.8006 30.8968 29.4041 30.1702 29.6408 29.323C29.7877 28.9008 29.7857 28.4498 29.7838 28.0086V28.0085L29.7834 27.9341C29.7827 25.5977 29.7827 23.262 29.7834 20.9255C29.4162 20.921 29.0489 20.9212 28.6816 20.9214C28.4164 20.9215 28.1512 20.9217 27.8859 20.92C27.8861 20.9842 27.8864 21.0484 27.8868 21.1125V21.1126C27.888 21.3212 27.8891 21.5297 27.8843 21.7383C27.5575 21.471 27.1962 21.2351 26.7941 21.0995ZM24.3871 23.1358C24.7014 22.8568 25.1184 22.7502 25.5251 22.6898C26.3348 22.5668 27.2456 22.9375 27.6602 23.6625C27.8274 23.9562 27.8204 24.2883 27.8135 24.6171V24.6172C27.8111 24.7323 27.8087 24.8471 27.8138 24.9597C27.882 25.651 27.3435 26.2607 26.7267 26.4959C25.9813 26.7765 25.0619 26.7953 24.4114 26.2772C23.4364 25.5459 23.4168 23.8772 24.3871 23.1358ZM43.4464 20.9216C42.6359 20.9161 41.791 21.1583 41.2071 21.743C41.2019 21.6682 41.1971 21.5936 41.1922 21.519C41.1838 21.3904 41.1755 21.262 41.1656 21.134C40.5276 21.1262 39.8896 21.1238 39.2516 21.134C39.2525 23.0684 39.2523 25.0028 39.2522 26.9371C39.2521 28.3879 39.252 29.8387 39.2523 31.2895C39.7006 31.3184 40.15 31.3159 40.5993 31.3134H40.5993C40.8083 31.3122 41.0172 31.311 41.2259 31.313C41.2405 30.4167 41.2373 29.5201 41.234 28.6232C41.2329 28.317 41.2318 28.0107 41.2314 27.7045C42.6391 28.8229 44.8799 28.6999 46.1457 27.4168C47.5236 26.035 47.6028 23.5724 46.2758 22.1302C45.5775 21.3276 44.5053 20.884 43.4464 20.9216ZM41.3239 23.831C41.53 23.211 42.1602 22.8411 42.7723 22.7196C43.4033 22.5918 44.1087 22.751 44.5962 23.1805C45.4223 23.9313 45.4286 25.3743 44.6495 26.1604C43.868 26.9168 42.4854 26.9027 41.7087 26.1463C41.378 25.854 41.2047 25.3962 41.2337 24.9589C41.2402 24.8436 41.2371 24.7265 41.2341 24.6094C41.2271 24.3444 41.2201 24.0789 41.3239 23.831ZM33.5284 21.018C34.6421 20.7938 35.8609 20.9287 36.8304 21.5486C37.568 21.9938 38.1292 22.7157 38.38 23.5394C38.7241 24.6218 38.5697 25.8602 37.9254 26.8023C37.285 27.7515 36.1917 28.3331 35.063 28.442C34.3678 28.489 33.6491 28.4655 32.9915 28.2124C31.902 27.8463 30.9881 26.9473 30.6668 25.8367C30.3219 24.7958 30.4818 23.6045 31.0728 22.6828C31.6199 21.8206 32.5369 21.232 33.5284 21.018ZM33.9947 22.7298C33.7173 22.809 33.4578 22.9469 33.2305 23.1232C32.4436 23.7432 32.2516 24.9691 32.812 25.7991C33.4523 26.8548 35.1046 27.0633 35.9714 26.1792C36.3954 25.7897 36.5969 25.2081 36.5404 24.6383C36.5883 23.3748 35.1869 22.3567 33.9947 22.7298ZM52.1887 20.9686C51.0483 20.8189 49.813 20.978 48.867 21.6748C48.3207 22.109 47.8536 22.7063 47.7611 23.4164C48.0334 23.463 48.3035 23.5219 48.5737 23.5808L48.5737 23.5808C48.9255 23.6576 49.2774 23.7343 49.6343 23.784C49.7887 23.164 50.3264 22.671 50.9574 22.5691C51.3657 22.4986 51.7905 22.5197 52.1879 22.6404C52.5351 22.7533 52.7993 23.1334 52.6472 23.4955C52.364 23.7538 51.9787 23.8319 51.6116 23.9063C51.5643 23.9159 51.5172 23.9254 51.4707 23.9352L51.2797 23.9624C50.3479 24.094 49.3793 24.2308 48.5864 24.7692C47.6059 25.455 47.602 27.0688 48.5088 27.8181C49.2573 28.4616 50.3115 28.5353 51.2505 28.4107C51.9003 28.2892 52.5547 28.0078 52.9693 27.4725C52.9717 27.6045 52.9717 27.7366 52.9717 27.8688C52.9717 28.0009 52.9717 28.1332 52.974 28.2657C53.117 28.2655 53.2601 28.265 53.4031 28.2646L53.4034 28.2645C53.8571 28.2631 54.3112 28.2616 54.7658 28.2688C54.7676 27.3833 54.7673 26.4981 54.7671 25.613C54.7669 24.9492 54.7667 24.2855 54.7673 23.6217C54.7744 23.0833 54.5777 22.5589 54.2814 22.1153C53.8001 21.4397 52.9834 21.0987 52.1887 20.9686ZM49.7213 26.3328C49.6179 26.0875 49.8177 25.8453 50.0176 25.7246C50.4207 25.5025 50.8744 25.4196 51.3273 25.3369C51.873 25.2372 52.4174 25.1377 52.8706 24.7951C52.8663 24.9027 52.8697 25.0153 52.8732 25.1295V25.1296C52.885 25.5153 52.8973 25.9188 52.6143 26.2067C52.0672 26.7522 51.234 26.8525 50.4981 26.8055C50.1924 26.7874 49.7903 26.6816 49.7213 26.3328ZM55.5547 21.1285C55.344 21.1289 55.1333 21.1293 54.9225 21.1293C55.4785 22.2911 56.0469 23.447 56.6152 24.603C57.1485 25.6876 57.6818 26.7723 58.205 27.862C57.9478 28.4274 57.6682 28.9825 57.3886 29.5376C57.0931 30.1243 56.7975 30.711 56.5285 31.3099C56.7549 31.3089 56.9815 31.3106 57.2081 31.3124C57.7119 31.3163 58.2159 31.3201 58.7192 31.2942C60.3706 27.9098 62.0205 24.5254 63.6688 21.1395C62.9281 21.1207 62.1882 21.1238 61.4483 21.1364C60.7382 22.6953 60.0195 24.2511 59.2968 25.8038C59.0837 25.3437 58.8684 24.8846 58.6531 24.4256C58.3013 23.6757 57.9496 22.9258 57.6078 22.1717C57.553 22.049 57.4927 21.9286 57.4324 21.8083C57.3218 21.5876 57.2112 21.367 57.1351 21.1317C56.6083 21.1266 56.0815 21.1276 55.5547 21.1285Z" fill="#010101"/>
</svg>
