<svg width="70" height="50" viewBox="0 0 70 50" fill="none" xmlns="http://www.w3.org/2000/svg">
<rect width="70" height="50" rx="4" fill="white"/>
<path fill-rule="evenodd" clip-rule="evenodd" d="M33.9175 29.1178V24.6066V24.6058H36.3579C37.364 24.6063 38.2095 24.2902 38.8946 23.6573C39.5868 23.0567 39.9739 22.193 39.9542 21.2929C39.9679 20.3977 39.5816 19.5405 38.8946 18.9418C38.2156 18.3054 37.3023 17.9582 36.3579 17.9773H32.4404V29.1178H33.9175ZM33.9175 23.2378V19.3489V19.348H36.3946C36.9466 19.3329 37.4788 19.5482 37.856 19.9391C38.2355 20.2966 38.4496 20.7876 38.4496 21.3004C38.4496 21.8133 38.2355 22.3043 37.856 22.6618C37.4742 23.0444 36.9437 23.2535 36.3946 23.2378H33.9175Z" fill="#5F6368"/>
<path fill-rule="evenodd" clip-rule="evenodd" d="M45.9424 22.0941C45.3106 21.5288 44.4488 21.2461 43.3571 21.2461C41.9546 21.2461 40.8956 21.7439 40.18 22.7394L41.4809 23.5332C41.9617 22.8588 42.6146 22.5216 43.4397 22.5216C43.9657 22.5157 44.4747 22.702 44.8653 23.0434C45.2548 23.3554 45.4788 23.8205 45.4754 24.3101V24.6372C44.9078 24.3261 44.1855 24.1705 43.3085 24.1705C42.2809 24.1717 41.4595 24.4052 40.8442 24.871C40.2289 25.3368 39.9213 25.964 39.9213 26.7528C39.9079 27.471 40.2294 28.1567 40.7965 28.6194C41.38 29.1172 42.1051 29.3661 42.9718 29.3661C43.9871 29.3661 44.8005 28.9305 45.4121 28.0594H45.4763V29.1172H46.8892V24.4194C46.8898 23.4345 46.5742 22.6594 45.9424 22.0941ZM41.936 27.7172C41.6266 27.5011 41.4441 27.1534 41.4461 26.7839C41.4461 26.3688 41.647 26.023 42.0516 25.7385C42.4522 25.4582 42.9525 25.3181 43.5525 25.3181C44.3763 25.3181 45.0185 25.4959 45.4791 25.8514C45.4791 26.4523 45.2345 26.9759 44.7452 27.4221C44.3045 27.8492 43.707 28.0895 43.0837 28.0905C42.6681 28.0981 42.2627 27.9662 41.936 27.7172Z" fill="#5F6368"/>
<path fill-rule="evenodd" clip-rule="evenodd" d="M54.9996 21.4961L50.0675 32.4783H48.5427L50.373 28.6356L47.1299 21.4961H48.7354L51.0794 26.9716H51.1115L53.3914 21.4961H54.9996Z" fill="#5F6368"/>
<path fill-rule="evenodd" clip-rule="evenodd" d="M27.9486 23.6334C27.9491 23.1972 27.9111 22.7619 27.8348 22.332H21.6055V24.7969H25.1734C25.0258 25.5924 24.5493 26.295 23.8541 26.7418V28.3418H25.9835C27.2302 27.228 27.9486 25.5809 27.9486 23.6334Z" fill="#4285F4"/>
<path fill-rule="evenodd" clip-rule="evenodd" d="M21.605 29.888C23.3875 29.888 24.8884 29.3209 25.9829 28.3431L23.8536 26.7431C23.2609 27.1324 22.4976 27.3547 21.605 27.3547C19.882 27.3547 18.4196 26.2293 17.8967 24.7129H15.7031V26.3618C16.8244 28.5235 19.1079 29.8879 21.605 29.888Z" fill="#34A853"/>
<path fill-rule="evenodd" clip-rule="evenodd" d="M17.8969 24.7139C17.6205 23.9193 17.6205 23.0588 17.8969 22.2641V20.6152H15.7034C14.7655 22.4233 14.7655 24.5547 15.7034 26.3628L17.8969 24.7139Z" fill="#FBBC04"/>
<path fill-rule="evenodd" clip-rule="evenodd" d="M21.605 19.6216C22.547 19.6067 23.4572 19.9516 24.1389 20.5816L26.0242 18.755C24.8287 17.667 23.245 17.0698 21.605 17.0883C19.1079 17.0884 16.8244 18.4528 15.7031 20.6145L17.8967 22.2634C18.4196 20.747 19.882 19.6216 21.605 19.6216Z" fill="#EA4335"/>
</svg>
