<svg viewBox="0 0 175 48" fill="none" xmlns="http://www.w3.org/2000/svg">
<path d="M30.044 0.959999L29.348 2.76C39.62 2.184 46.292 1.896 50.78 1.896C54.332 1.896 56.516 2.088 58.076 2.472C59.684 2.904 60.62 3.576 60.62 4.584C60.62 4.728 60.62 4.872 60.572 5.04V5.064C60.572 5.304 60.404 5.4 60.188 5.4C59.876 5.4 59.492 5.232 59.3 4.944C59.324 4.872 59.324 4.824 59.324 4.752C59.324 4.176 58.772 3.456 57.644 3.144C56.468 2.832 54.932 2.712 52.7 2.712C48.308 2.712 41.276 3.216 29.084 3.888L18.692 29.712C17.252 39.432 11.276 46.8 11.252 46.824C11.132 46.992 10.892 47.088 10.676 47.088C10.46 47.088 10.268 46.992 10.268 46.752C10.268 46.656 10.316 46.536 10.412 46.368L17.276 29.328C17.516 27.6 17.66 25.848 17.66 24.12C17.66 16.992 15.404 10.104 9.26 5.664C8.108 5.736 7.028 5.784 6.044 5.784C3.236 5.784 1.316 5.496 0.931999 5.04C0.788 4.896 0.74 4.752 0.74 4.584C0.74 4.392 0.86 4.176 1.1 3.96C1.724 3.432 2.444 3.048 3.236 2.856C3.692 2.76 4.148 2.688 4.628 2.688C5.564 2.688 6.548 2.904 7.58 3.336C8.18 3.576 8.78 3.912 9.38 4.32C15.572 3.864 21.74 3.264 27.932 2.856L28.772 0.719999C28.868 0.36 29.132 0.191998 29.396 0.191998C29.732 0.191998 30.044 0.455998 30.044 0.863997V0.959999ZM13.988 40.08C14.564 38.832 15.14 37.416 15.668 35.904L13.988 40.08ZM22.604 17.352L27.38 4.128C21.812 4.536 16.292 5.16 10.676 5.568C16.508 10.56 18.524 17.448 18.524 24.72C18.524 25.224 18.524 25.728 18.5 26.232L22.604 17.352ZM7.7 4.44C7.532 4.368 7.364 4.296 7.22 4.224C6.308 3.84 5.42 3.648 4.604 3.648C4.22 3.648 3.812 3.696 3.452 3.792C2.9 3.936 2.372 4.176 1.94 4.536C2.228 4.608 2.708 4.632 3.38 4.632C4.436 4.632 5.9 4.56 7.7 4.44ZM34.5329 21.264L33.3569 24.168C34.2929 22.176 35.6609 20.904 36.8129 20.904C37.3169 20.904 37.7729 21.144 38.1569 21.648C39.0449 23.616 42.5969 23.976 45.2609 23.976C46.4369 23.976 47.4449 23.904 47.9489 23.88C48.2369 23.856 48.4529 23.64 48.5009 23.64C48.5969 23.616 48.6929 23.592 48.7409 23.592C48.8849 23.592 48.9329 23.664 48.9329 23.736C48.9329 23.904 48.7649 24.144 48.5729 24.192C48.4529 24.312 46.6289 24.6 44.4929 24.6C41.8769 24.6 38.7809 24.168 37.5809 22.488C37.4369 22.296 37.2689 22.2 37.1009 22.2C35.3969 22.2 32.2529 29.712 32.2289 29.736V29.784C32.2289 30.072 31.8929 30.192 31.5329 30.192C31.1009 30.192 30.6209 30.024 30.6209 29.784C30.6209 29.736 30.6449 29.712 30.6449 29.688L32.6849 21.144C32.8529 20.688 33.2369 20.52 33.6209 20.52C34.0769 20.52 34.5329 20.784 34.5329 21.216V21.264ZM54.3042 24.048C53.9682 24.384 53.8242 24.504 53.4162 24.888C51.5202 26.688 49.3602 28.704 48.3282 28.704C48.3042 28.704 48.2562 28.68 48.2082 28.68C47.9442 28.632 47.7522 28.488 47.5842 28.296C47.3922 28.056 47.3202 27.768 47.3202 27.432C47.3202 27.312 47.3202 27.192 47.3442 27.072C47.3922 26.688 47.5362 26.208 47.7762 25.728C48.4722 24.192 49.9602 22.392 51.8082 21.84C52.2882 21.696 52.7202 21.648 53.1042 21.648C53.8482 21.648 54.4002 21.888 54.7602 22.248C55.4802 21.648 56.3202 21.048 56.7762 21.048C56.8482 21.048 56.9202 21.072 56.9682 21.096C57.2802 21.144 57.4482 21.456 57.4482 21.984C57.4482 22.56 57.2562 23.376 56.8482 24.408C56.5842 25.128 56.4642 25.728 56.4642 26.208C56.4642 27.456 57.2562 27.912 58.4322 27.912C61.4802 27.912 67.1442 24.696 67.9842 23.64C68.1282 23.352 68.2962 23.256 68.4402 23.256C68.6562 23.256 68.8002 23.448 68.8002 23.712C68.8002 23.856 68.7522 24 68.6322 24.144C68.3442 24.552 61.9122 28.32 58.1682 28.32C56.6322 28.32 55.5522 27.672 55.5522 25.872C55.5522 25.392 55.6242 24.84 55.7922 24.168C55.9362 23.256 56.2482 22.416 56.2482 22.224V22.2C56.2482 22.2 55.8882 22.536 55.3362 23.064C55.4322 23.352 55.4322 23.64 55.4322 23.784V23.88C55.2162 24.192 54.9282 24.336 54.6642 24.336C54.5682 24.336 54.4722 24.312 54.3762 24.264L54.3042 24.048ZM53.3922 23.424C53.2722 23.328 53.1522 23.304 53.0082 23.304C51.8562 23.304 49.8402 25.92 49.8402 26.472C49.8402 26.544 49.8882 26.592 49.9842 26.592C50.4402 26.592 51.8802 25.44 53.3922 23.424ZM72.1668 21C72.1668 21.024 70.0788 28.032 70.0788 29.136C70.0788 29.232 70.1028 29.28 70.1268 29.28C70.1508 29.28 70.1748 29.256 70.1988 29.232C70.7988 28.776 75.5028 19.728 75.9588 18.816C75.9828 18.792 76.2228 18.168 76.2228 18.168C76.3188 18.096 76.5108 18.072 76.7268 18.072C77.2068 18.072 77.8308 18.24 77.8308 18.6V18.648L77.4708 19.344C77.3508 19.68 76.8948 20.592 76.8948 21.504C76.8948 22.632 77.5908 23.76 80.4228 23.76C80.8308 23.76 81.2628 23.736 81.7428 23.688C82.0788 23.784 82.2228 24 82.2228 24.192C82.2228 24.408 82.0548 24.624 81.7428 24.648C77.5188 24.648 76.2228 23.088 76.0068 21.504C73.9428 25.272 70.3908 31.416 69.0468 31.416C68.9748 31.416 68.9028 31.392 68.8548 31.368C68.3508 31.272 68.1828 30.504 68.1828 29.4C68.1828 26.88 69.1908 22.56 69.8628 20.568C70.0308 20.112 70.3428 19.944 70.7028 19.944C71.2788 19.944 71.9268 20.448 72.1668 21ZM82.8903 24.6C84.4263 23.28 85.0023 22.488 85.0023 22.272C85.0023 22.224 84.9783 22.2 84.9303 22.2C84.4503 22.272 83.9943 23.16 82.8903 24.6ZM86.4423 22.008C86.4423 22.104 86.4663 22.176 86.4663 22.272C86.4663 24.288 83.2263 25.584 82.5543 25.848C82.5543 25.992 82.5303 26.16 82.5303 26.328C82.5303 26.904 82.6263 27.576 82.9143 28.008C83.2263 28.488 83.7543 28.704 84.4263 28.704C87.7383 28.704 94.3623 23.712 94.3863 23.688C94.4823 23.616 94.5783 23.592 94.6743 23.592C94.9863 23.592 95.2503 23.88 95.2503 24.168C95.2503 24.288 95.1783 24.408 95.0583 24.504C95.0103 24.528 88.5543 29.184 84.6183 29.184C83.5863 29.184 82.7223 28.872 82.1943 28.056C81.7383 27.384 81.5703 26.664 81.5703 25.968C81.5703 24.624 82.2423 23.352 83.0343 22.416C83.4663 21.912 83.9463 21.528 84.3783 21.288C84.7143 21.096 85.0263 21 85.3383 21C85.5063 21 85.6743 21.024 85.8183 21.096C86.1543 21.24 86.3943 21.552 86.4423 22.008ZM96.9108 21.984C98.3988 20.616 104.999 9.96 104.999 7.416C104.999 7.296 104.975 7.2 104.951 7.128C104.879 6.984 104.831 6.912 104.783 6.912H104.759C104.519 6.912 104.087 7.296 103.535 7.92C102.911 8.64 102.191 9.696 101.447 10.968C99.9588 13.512 98.0388 18.816 96.9108 21.984ZM96.1668 24.144C94.3908 29.832 93.5028 33.984 93.5028 36.312C93.5028 37.056 93.5988 37.632 93.7668 37.992C94.0068 38.496 94.3668 38.736 94.7988 38.736C98.3268 38.736 107.375 24.216 107.399 24.168C107.639 23.808 107.903 23.664 108.119 23.664C108.383 23.664 108.575 23.856 108.575 24.192V24.216C108.551 24.264 99.0708 39.072 94.7268 39.072C94.0788 39.072 93.5508 38.736 93.1668 37.968C92.9268 37.464 92.8308 36.672 92.8308 35.712C92.8308 29.424 97.4868 14.928 100.679 10.536C101.447 9.216 102.215 8.112 102.863 7.344C103.607 6.504 104.279 6.024 104.831 6.024H104.855C105.263 6.048 105.575 6.312 105.767 6.816C105.863 7.08 105.911 7.392 105.911 7.752C105.911 12.072 99.0708 22.2 96.1668 24.144ZM110.551 21.768C110.527 21.744 110.503 21.696 110.503 21.672C110.455 21.552 110.455 21.456 110.455 21.36C110.455 21.168 110.527 21.024 110.671 20.904C110.791 20.808 110.911 20.76 111.055 20.76C111.127 20.76 111.199 20.784 111.295 20.808C111.703 20.976 111.991 21.36 112.159 22.008C112.711 22.608 113.503 23.112 115.111 23.232C115.951 23.304 116.719 23.328 117.391 23.328C119.911 23.328 121.231 22.944 121.231 22.92H121.351C121.615 22.92 121.759 23.136 121.759 23.376C121.759 23.616 121.639 23.856 121.423 23.928C121.423 23.928 120.463 24.12 118.495 24.12C117.631 24.12 116.575 24.072 115.327 23.976C114.007 23.856 113.167 23.64 112.423 23.304C112.399 25.368 111.631 28.608 109.831 29.88C109.495 30.096 109.087 30.24 108.703 30.24C108.511 30.24 108.319 30.216 108.175 30.144C107.479 29.856 107.239 29.16 107.239 28.344C107.239 27.24 107.671 25.944 107.959 25.296C108.343 24.432 109.639 22.344 110.551 21.768ZM111.055 22.44C110.167 23.136 109.231 24.792 108.799 25.8C108.655 26.136 108.223 27.456 108.223 28.368C108.223 28.776 108.295 29.088 108.559 29.184C108.607 29.208 108.655 29.208 108.703 29.208C109.831 29.208 111.223 24.048 111.223 22.728V22.584C111.151 22.536 111.103 22.488 111.055 22.44ZM123.676 20.064L120.772 30.312C121.564 28.56 124.564 20.328 128.476 20.328C128.836 20.328 129.22 20.4 129.604 20.544C130.516 21.192 130.876 22.536 130.876 23.712C130.876 24.048 130.828 24.408 130.78 24.696C132.82 24.048 134.812 23.544 136.804 23.544C137.068 23.544 137.332 23.544 137.62 23.568C137.836 23.592 137.908 23.76 137.908 23.952C137.908 24.264 137.668 24.648 137.38 24.648H137.332C136.684 24.576 136.06 24.528 135.436 24.528C133.9 24.528 132.412 24.792 130.732 25.392C129.916 27.744 127.732 30.648 124.996 30.936C124.828 30.96 124.684 30.96 124.564 30.96C123.892 30.96 123.532 30.768 123.268 30.552C123.028 30.384 122.932 30.168 122.932 29.952C122.932 28.296 128.908 25.512 129.628 25.104C129.652 25.056 129.676 24.984 129.7 24.936C129.724 24.768 129.748 24.552 129.748 24.312C129.748 23.376 129.484 22.008 128.932 21.624C128.548 21.312 128.14 21.168 127.756 21.168C123.46 21.168 118.876 38.52 117.652 43.536C117.628 43.608 117.628 43.704 117.628 43.8C117.628 44.016 117.652 44.304 117.652 44.496V44.64C117.628 44.736 117.388 44.808 117.148 44.808C116.836 44.808 116.452 44.688 116.452 44.328C116.452 44.28 116.452 44.232 116.476 44.184C118.108 36.096 119.764 30 121.972 21.816L121.9 20.256C121.972 19.68 122.452 19.44 122.884 19.44C123.292 19.44 123.676 19.656 123.676 19.968V20.064ZM124.588 30.264C126.652 30.072 128.524 27.744 129.34 25.92C127.252 26.664 123.556 29.064 123.556 29.856C123.556 29.928 123.604 29.976 123.652 30.024C123.772 30.12 123.844 30.288 124.3 30.288C124.396 30.288 124.468 30.264 124.588 30.264ZM140.7 22.512C140.7 22.512 139.164 25.296 139.164 26.976C139.164 27.48 139.308 27.888 139.644 28.104C139.764 28.2 139.956 28.224 140.196 28.224C143.004 28.224 153.636 23.64 153.636 23.64C153.828 23.496 153.996 23.448 154.164 23.448C154.596 23.448 154.908 23.784 154.908 24.024C154.908 24.072 154.908 24.12 154.86 24.168C154.836 24.168 143.772 28.992 139.764 28.992C139.164 28.992 138.708 28.896 138.492 28.632C137.82 28.2 137.58 27.384 137.58 26.472C137.58 24.792 138.396 22.752 138.828 22.008C139.02 21.6 139.356 21.432 139.716 21.432C140.22 21.432 140.724 21.792 140.724 22.296C140.724 22.368 140.724 22.44 140.7 22.512ZM141.564 16.896C141.876 17.016 142.068 17.352 142.068 17.76C142.068 17.928 142.044 18.096 141.972 18.264C141.804 18.768 141.396 19.104 141.012 19.104C140.94 19.104 140.868 19.104 140.796 19.08C140.484 18.96 140.292 18.624 140.292 18.216C140.292 18.048 140.316 17.88 140.388 17.712C140.58 17.208 140.988 16.872 141.372 16.872C141.444 16.872 141.492 16.872 141.564 16.896ZM159.673 24.048C159.337 24.384 159.193 24.504 158.785 24.888C156.889 26.688 154.729 28.704 153.697 28.704C153.673 28.704 153.625 28.68 153.577 28.68C153.313 28.632 153.121 28.488 152.953 28.296C152.761 28.056 152.689 27.768 152.689 27.432C152.689 27.312 152.689 27.192 152.713 27.072C152.761 26.688 152.905 26.208 153.145 25.728C153.841 24.192 155.329 22.392 157.177 21.84C157.657 21.696 158.089 21.648 158.473 21.648C159.217 21.648 159.769 21.888 160.129 22.248C160.849 21.648 161.689 21.048 162.145 21.048C162.217 21.048 162.289 21.072 162.337 21.096C162.649 21.144 162.817 21.456 162.817 21.984C162.817 22.56 162.625 23.376 162.217 24.408C161.953 25.128 161.833 25.728 161.833 26.208C161.833 27.456 162.625 27.912 163.801 27.912C166.849 27.912 172.513 24.696 173.353 23.64C173.497 23.352 173.665 23.256 173.809 23.256C174.025 23.256 174.169 23.448 174.169 23.712C174.169 23.856 174.121 24 174.001 24.144C173.713 24.552 167.281 28.32 163.537 28.32C162.001 28.32 160.921 27.672 160.921 25.872C160.921 25.392 160.993 24.84 161.161 24.168C161.305 23.256 161.617 22.416 161.617 22.224V22.2C161.617 22.2 161.257 22.536 160.705 23.064C160.801 23.352 160.801 23.64 160.801 23.784V23.88C160.585 24.192 160.297 24.336 160.033 24.336C159.937 24.336 159.841 24.312 159.745 24.264L159.673 24.048ZM158.761 23.424C158.641 23.328 158.521 23.304 158.377 23.304C157.225 23.304 155.209 25.92 155.209 26.472C155.209 26.544 155.257 26.592 155.353 26.592C155.809 26.592 157.249 25.44 158.761 23.424Z" fill="#1E1E1E"/>
</svg>
