<svg width="70" height="50" viewBox="0 0 70 50" fill="none" xmlns="http://www.w3.org/2000/svg">
<rect width="70" height="50" rx="4" fill="#262626"/>
<g opacity="0.01">
<rect x="15" y="12" width="39.8152" height="25.9701" fill="white"/>
</g>
<rect x="29.6572" y="16.5254" width="10.503" height="16.9179" fill="#FF5F00"/>
<path fill-rule="evenodd" clip-rule="evenodd" d="M30.7391 24.9858C30.7365 21.685 32.2729 18.5663 34.9058 16.5283C30.433 13.0617 24.0099 13.5666 20.1504 17.6883C16.291 21.81 16.291 28.1646 20.1504 32.2863C24.0099 36.408 30.433 36.9129 34.9058 33.4463C32.2721 31.4076 30.7355 28.2877 30.7391 24.9858Z" fill="#EB001B"/>
<path fill-rule="evenodd" clip-rule="evenodd" d="M51.5357 31.3798V32.0829H51.4623V31.3798H51.3057V31.2344H51.7023V31.3798H51.5357ZM52.3057 31.2344V32.0829H52.2223V31.4404L52.0923 31.992H52.0023L51.8723 31.4404V32.0829H51.7857V31.2344H51.9057L52.0457 31.8404L52.1857 31.2344H52.3057Z" fill="#F79E1B"/>
<path fill-rule="evenodd" clip-rule="evenodd" d="M52.5578 24.9841C52.5577 29.1033 50.1727 32.8608 46.4159 34.6609C42.659 36.4609 38.1898 35.9875 34.9062 33.4416C37.5379 31.4019 39.0745 28.2836 39.0745 24.9826C39.0745 21.6816 37.5379 18.5633 34.9062 16.5236C38.1898 13.9778 42.659 13.5043 46.4159 15.3044C50.1727 17.1044 52.5577 20.8619 52.5578 24.9811V24.9841Z" fill="#F79E1B"/>
</svg>
