<svg width="70" height="50" viewBox="0 0 70 50" fill="none" xmlns="http://www.w3.org/2000/svg">
<rect width="70" height="50" rx="4" fill="#0742A6"/>
<path fill-rule="evenodd" clip-rule="evenodd" d="M32.0221 31.7442H28.4824L30.6964 18.4121H34.2359L32.0221 31.7442Z" fill="white"/>
<path fill-rule="evenodd" clip-rule="evenodd" d="M44.8535 18.7375C44.1553 18.4678 43.0479 18.1699 41.6786 18.1699C38.1831 18.1699 35.7215 19.9853 35.7064 22.5807C35.6774 24.4955 37.4688 25.5591 38.8087 26.1976C40.1781 26.85 40.6437 27.2759 40.6437 27.8574C40.6297 28.7506 39.5371 29.1623 38.5179 29.1623C37.1047 29.1623 36.3475 28.95 35.1968 28.4531L34.7307 28.2401L34.2354 31.2328C35.0655 31.6012 36.5951 31.9281 38.1831 31.9424C41.8972 31.9424 44.3152 30.1551 44.3438 27.3893C44.3579 25.8716 43.412 24.7087 41.3726 23.7585C40.1346 23.1484 39.3764 22.7371 39.3764 22.113C39.3909 21.5456 40.0177 20.9644 41.4152 20.9644C42.5659 20.9359 43.4114 21.2053 44.0519 21.4749L44.3721 21.6164L44.8535 18.7375Z" fill="white"/>
<path fill-rule="evenodd" clip-rule="evenodd" d="M51.1899 18.4121H53.9278L56.7835 31.744H53.5061C53.5061 31.744 53.1853 30.2122 53.0837 29.7441H48.539C48.4076 30.0985 47.7961 31.744 47.7961 31.744H44.082L49.3398 19.5183C49.7041 18.653 50.3456 18.4121 51.1899 18.4121ZM50.9717 23.2909C50.9717 23.2909 49.85 26.2552 49.5585 27.0211H52.5007C52.3551 26.3546 51.6848 23.1633 51.6848 23.1633L51.4374 22.0145C51.3333 22.3103 51.1826 22.717 51.081 22.9913C51.0121 23.1773 50.9658 23.3024 50.9717 23.2909Z" fill="white"/>
<path fill-rule="evenodd" clip-rule="evenodd" d="M25.5253 18.4121L22.0588 27.5033L21.68 25.6595C21.0391 23.532 19.0291 21.2205 16.7861 20.0712L19.9613 31.7301H23.7045L29.2683 18.4121H25.5253V18.4121Z" fill="white"/>
<path fill-rule="evenodd" clip-rule="evenodd" d="M18.8402 18.4121H13.1452L13.0869 18.6815C17.5294 19.7878 20.4716 22.4547 21.6804 25.6601L20.4423 19.5328C20.2385 18.6813 19.6121 18.4402 18.8402 18.4121Z" fill="white"/>
</svg>
